<?xml version="1.0" encoding="utf-8"?>
<!-- Generator: Adobe Illustrator 25.3.1, SVG Export Plug-In . SVG Version: 6.00 Build 0)  -->
<svg version="1.1" id="Capa_1" xmlns="http://www.w3.org/2000/svg" xmlns:xlink="http://www.w3.org/1999/xlink" x="0px" y="0px"
	 viewBox="0 0 157 24" style="enable-background:new 0 0 157 24;" xml:space="preserve">
<style type="text/css">
	.st0{enable-background:new    ;}
	.st1{fill:#455A63;}
</style>
<g class="st0">
	<path class="st1" d="M38.4,5.7L43.7,20h-3.3l-1.1-3.2H34L32.9,20h-3.2l5.4-14.3H38.4z M38.5,14.5l-1.8-5.2h0l-1.9,5.2H38.5z"/>
	<path class="st1" d="M51.4,5.7c0.9,0,1.7,0.1,2.3,0.4c0.6,0.3,1.1,0.6,1.5,1c0.4,0.4,0.7,0.9,0.9,1.5c0.2,0.5,0.3,1.1,0.3,1.7
		c0,0.6-0.1,1.1-0.3,1.7c-0.2,0.6-0.5,1-0.9,1.5c-0.4,0.4-0.9,0.8-1.5,1c-0.6,0.3-1.4,0.4-2.3,0.4h-3.3V20h-3.1V5.7H51.4z
		 M50.5,12.4c0.4,0,0.7,0,1-0.1c0.3-0.1,0.6-0.2,0.9-0.3s0.5-0.4,0.6-0.6c0.2-0.3,0.2-0.6,0.2-1.1c0-0.5-0.1-0.8-0.2-1.1
		c-0.2-0.3-0.4-0.5-0.6-0.7s-0.5-0.3-0.9-0.3c-0.3-0.1-0.7-0.1-1-0.1h-2.4v4.3H50.5z"/>
	<path class="st1" d="M64.7,5.7c0.9,0,1.7,0.1,2.3,0.4c0.6,0.3,1.1,0.6,1.5,1c0.4,0.4,0.7,0.9,0.9,1.5c0.2,0.5,0.3,1.1,0.3,1.7
		c0,0.6-0.1,1.1-0.3,1.7c-0.2,0.6-0.5,1-0.9,1.5c-0.4,0.4-0.9,0.8-1.5,1c-0.6,0.3-1.4,0.4-2.3,0.4h-3.3V20h-3.1V5.7H64.7z
		 M63.9,12.4c0.4,0,0.7,0,1-0.1c0.3-0.1,0.6-0.2,0.9-0.3s0.5-0.4,0.6-0.6c0.2-0.3,0.2-0.6,0.2-1.1c0-0.5-0.1-0.8-0.2-1.1
		c-0.2-0.3-0.4-0.5-0.6-0.7s-0.5-0.3-0.9-0.3c-0.3-0.1-0.7-0.1-1-0.1h-2.4v4.3H63.9z"/>
	<path class="st1" d="M71.2,12.8c0-0.7,0.2-1.2,0.5-1.7c0.3-0.4,0.7-0.8,1.1-1.1c0.5-0.3,1-0.5,1.5-0.6s1.1-0.2,1.7-0.2
		c0.5,0,1,0,1.6,0.1s1,0.2,1.5,0.4c0.4,0.2,0.8,0.5,1.1,0.9c0.3,0.4,0.4,0.9,0.4,1.5v5.4c0,0.5,0,0.9,0.1,1.3c0.1,0.4,0.1,0.7,0.3,1
		h-2.9c-0.1-0.2-0.1-0.3-0.1-0.5c0-0.2-0.1-0.3-0.1-0.5c-0.5,0.5-1,0.8-1.6,1c-0.6,0.2-1.2,0.3-1.9,0.3c-0.5,0-1-0.1-1.4-0.2
		s-0.8-0.3-1.1-0.6c-0.3-0.3-0.6-0.6-0.8-1c-0.2-0.4-0.3-0.8-0.3-1.4c0-0.6,0.1-1.1,0.3-1.4c0.2-0.4,0.5-0.7,0.8-0.9
		s0.7-0.4,1.1-0.5c0.4-0.1,0.8-0.2,1.3-0.3c0.4-0.1,0.8-0.1,1.3-0.2c0.4,0,0.8-0.1,1.1-0.2s0.6-0.2,0.8-0.4c0.2-0.2,0.3-0.4,0.3-0.7
		c0-0.3,0-0.5-0.1-0.7c-0.1-0.2-0.2-0.3-0.4-0.4c-0.2-0.1-0.4-0.2-0.6-0.2c-0.2,0-0.5,0-0.7,0c-0.6,0-1,0.1-1.3,0.4
		c-0.3,0.2-0.5,0.6-0.6,1.2H71.2z M77.8,14.9c-0.1,0.1-0.3,0.2-0.5,0.2c-0.2,0.1-0.4,0.1-0.6,0.1c-0.2,0-0.4,0.1-0.7,0.1
		c-0.2,0-0.5,0.1-0.7,0.1c-0.2,0-0.4,0.1-0.6,0.2s-0.4,0.2-0.5,0.3c-0.2,0.1-0.3,0.3-0.4,0.4c-0.1,0.2-0.1,0.4-0.1,0.7
		c0,0.3,0,0.5,0.1,0.6c0.1,0.2,0.2,0.3,0.4,0.4c0.2,0.1,0.3,0.2,0.6,0.2c0.2,0,0.4,0.1,0.7,0.1c0.6,0,1-0.1,1.3-0.3
		c0.3-0.2,0.5-0.4,0.7-0.7c0.1-0.3,0.2-0.5,0.3-0.8c0-0.3,0-0.5,0-0.6V14.9z"/>
	<path class="st1" d="M87.7,11.5c-0.5,0-0.8,0.1-1.1,0.3s-0.6,0.5-0.8,0.8c-0.2,0.3-0.3,0.7-0.4,1.1c-0.1,0.4-0.1,0.8-0.1,1.2
		c0,0.4,0,0.8,0.1,1.1c0.1,0.4,0.2,0.7,0.4,1.1s0.4,0.6,0.7,0.8s0.7,0.3,1.1,0.3c0.7,0,1.2-0.2,1.6-0.6c0.4-0.4,0.6-0.9,0.7-1.5h2.7
		c-0.2,1.4-0.7,2.4-1.6,3.1c-0.9,0.7-2,1.1-3.4,1.1c-0.8,0-1.5-0.1-2.1-0.4c-0.6-0.3-1.2-0.6-1.7-1.1s-0.8-1-1.1-1.7
		c-0.3-0.6-0.4-1.4-0.4-2.1c0-0.8,0.1-1.5,0.4-2.2s0.6-1.3,1-1.8c0.5-0.5,1-0.9,1.7-1.2s1.4-0.4,2.2-0.4c0.6,0,1.2,0.1,1.8,0.2
		c0.6,0.2,1.1,0.4,1.5,0.7c0.4,0.3,0.8,0.7,1.1,1.2c0.3,0.5,0.4,1.1,0.5,1.7h-2.8C89.6,12.1,88.9,11.5,87.7,11.5z"/>
	<path class="st1" d="M97.1,5.7v5.4h0.1c0.4-0.6,0.8-1,1.4-1.3c0.6-0.3,1.1-0.4,1.6-0.4c0.8,0,1.4,0.1,1.9,0.3
		c0.5,0.2,0.9,0.5,1.1,0.9c0.3,0.4,0.5,0.8,0.6,1.3c0.1,0.5,0.2,1.1,0.2,1.8V20h-2.8v-5.8c0-0.9-0.1-1.5-0.4-1.9
		c-0.3-0.4-0.7-0.6-1.4-0.6c-0.8,0-1.3,0.2-1.7,0.7s-0.5,1.2-0.5,2.3V20h-2.8V5.7H97.1z"/>
	<path class="st1" d="M106,12.8c0-0.7,0.2-1.2,0.5-1.7c0.3-0.4,0.7-0.8,1.1-1.1s1-0.5,1.5-0.6c0.6-0.1,1.1-0.2,1.7-0.2
		c0.5,0,1,0,1.6,0.1s1,0.2,1.5,0.4c0.4,0.2,0.8,0.5,1.1,0.9c0.3,0.4,0.4,0.9,0.4,1.5v5.4c0,0.5,0,0.9,0.1,1.3c0.1,0.4,0.1,0.7,0.3,1
		h-2.9c-0.1-0.2-0.1-0.3-0.1-0.5c0-0.2-0.1-0.3-0.1-0.5c-0.5,0.5-1,0.8-1.6,1c-0.6,0.2-1.2,0.3-1.9,0.3c-0.5,0-1-0.1-1.4-0.2
		s-0.8-0.3-1.1-0.6c-0.3-0.3-0.6-0.6-0.8-1c-0.2-0.4-0.3-0.8-0.3-1.4c0-0.6,0.1-1.1,0.3-1.4c0.2-0.4,0.5-0.7,0.8-0.9
		c0.3-0.2,0.7-0.4,1.1-0.5c0.4-0.1,0.8-0.2,1.3-0.3c0.4-0.1,0.8-0.1,1.3-0.2c0.4,0,0.8-0.1,1.1-0.2c0.3-0.1,0.6-0.2,0.8-0.4
		c0.2-0.2,0.3-0.4,0.3-0.7c0-0.3,0-0.5-0.2-0.7c-0.1-0.2-0.2-0.3-0.4-0.4c-0.2-0.1-0.4-0.2-0.6-0.2c-0.2,0-0.5,0-0.7,0
		c-0.6,0-1,0.1-1.3,0.4c-0.3,0.2-0.5,0.6-0.6,1.2H106z M112.6,14.9c-0.1,0.1-0.3,0.2-0.5,0.2c-0.2,0.1-0.4,0.1-0.6,0.1
		s-0.4,0.1-0.7,0.1c-0.2,0-0.5,0.1-0.7,0.1c-0.2,0-0.4,0.1-0.6,0.2c-0.2,0.1-0.4,0.2-0.5,0.3s-0.3,0.3-0.4,0.4
		c-0.1,0.2-0.1,0.4-0.1,0.7c0,0.3,0,0.5,0.1,0.6c0.1,0.2,0.2,0.3,0.4,0.4c0.2,0.1,0.3,0.2,0.6,0.2c0.2,0,0.4,0.1,0.7,0.1
		c0.6,0,1-0.1,1.3-0.3c0.3-0.2,0.5-0.4,0.7-0.7c0.1-0.3,0.2-0.5,0.3-0.8c0-0.3,0-0.5,0-0.6V14.9z"/>
	<path class="st1" d="M120,17.4c0.1,0.2,0.3,0.4,0.5,0.5c0.2,0.1,0.4,0.2,0.7,0.3s0.5,0.1,0.8,0.1c0.2,0,0.4,0,0.6-0.1
		c0.2,0,0.4-0.1,0.6-0.2c0.2-0.1,0.3-0.2,0.5-0.4c0.1-0.2,0.2-0.4,0.2-0.6c0-0.4-0.3-0.7-0.8-1c-0.6-0.2-1.4-0.4-2.4-0.6
		c-0.4-0.1-0.8-0.2-1.2-0.3c-0.4-0.1-0.7-0.3-1.1-0.5c-0.3-0.2-0.6-0.5-0.7-0.8c-0.2-0.3-0.3-0.7-0.3-1.1c0-0.7,0.1-1.2,0.4-1.6
		c0.3-0.4,0.6-0.8,1-1c0.4-0.2,0.9-0.4,1.4-0.5c0.5-0.1,1.1-0.2,1.6-0.2c0.6,0,1.1,0.1,1.6,0.2s1,0.3,1.4,0.5s0.8,0.6,1,1
		c0.3,0.4,0.4,1,0.5,1.6h-2.7c0-0.5-0.2-0.9-0.6-1.1c-0.4-0.2-0.8-0.3-1.3-0.3c-0.2,0-0.3,0-0.5,0c-0.2,0-0.4,0.1-0.5,0.1
		c-0.2,0.1-0.3,0.2-0.4,0.3c-0.1,0.1-0.2,0.3-0.2,0.5c0,0.3,0.1,0.5,0.3,0.6c0.2,0.2,0.4,0.3,0.7,0.4c0.3,0.1,0.6,0.2,1,0.3
		c0.4,0.1,0.8,0.2,1.2,0.3c0.4,0.1,0.8,0.2,1.2,0.3c0.4,0.1,0.7,0.3,1.1,0.5c0.3,0.2,0.6,0.5,0.7,0.8c0.2,0.3,0.3,0.7,0.3,1.2
		c0,0.7-0.1,1.2-0.4,1.7s-0.6,0.8-1.1,1.1c-0.4,0.3-0.9,0.5-1.5,0.6s-1.1,0.2-1.7,0.2c-0.6,0-1.2-0.1-1.8-0.2
		c-0.6-0.1-1.1-0.3-1.5-0.6c-0.4-0.3-0.8-0.7-1.1-1.1c-0.3-0.5-0.4-1-0.5-1.7h2.7C119.8,16.9,119.9,17.2,120,17.4z"/>
</g>
</svg>
